<?xml version="1.0" encoding="utf-8"?>
<!-- Generator: Adobe Illustrator 25.4.1, SVG Export Plug-In . SVG Version: 6.00 Build 0)  -->
<svg version="1.1" id="Layer_1" xmlns="http://www.w3.org/2000/svg" xmlns:xlink="http://www.w3.org/1999/xlink" x="0px" y="0px"
	 viewBox="0 0 1000 1000" style="enable-background:new 0 0 1000 1000;" xml:space="preserve">
<style type="text/css">
	.st0{fill:none;}
	.st1{opacity:0.1;fill:#E5E5E5;}
	.st2{fill:#5B85C4;}
	.st3{fill:#455A63;}
	.st4{fill:#37464F;}
	.st5{fill:#253138;}
	.st6{fill:#F8F8F8;}
	.st7{fill:#182334;}
	.st8{fill:#304768;}
	.st9{fill:#FEA7A6;}
	.st10{fill:#496A9D;}
	.st11{fill:#81A4DA;}
	.st12{fill:#446493;}
	.st13{fill:#384750;}
	.st14{fill:#EAEAEA;}
	.st15{fill:#DEDDDE;}
	.st16{fill:#F19BAC;}
	.st17{fill:#2A353C;}
	.st18{fill:#F29292;}
	.st19{fill:#A267B3;}
	.st20{fill:#618ED1;}
	.st21{fill:#A283A8;}
	.st22{fill:#263239;}
	.st23{fill:#27333A;}
	.st24{fill:#29343B;}
	.st25{fill:#465A63;}
	.st26{fill:#4A5E67;}
	.st27{fill:#485D65;}
	.st28{fill:#2E3940;}
	.st29{fill:#FDFDFE;}
	.st30{fill:#FDFDFD;}
	.st31{fill:#2A353D;}
	.st32{fill:#FDFCFD;}
	.st33{fill:#FDFBFD;}
	.st34{fill:#FCFAFD;}
	.st35{fill:#FCFBFD;}
	.st36{fill:#FCF9FC;}
	.st37{fill:#E8E8E8;}
	.st38{fill:#E5E5E5;}
	.st39{fill:#FCFCFC;}
	.st40{fill:#EAE9EC;}
	.st41{fill:#F1EFF1;}
	.st42{fill:#E6E5E7;}
	.st43{fill:#EBEAEC;}
	.st44{fill:#EEEEEF;}
	.st45{fill:#F9FAFA;}
	.st46{fill:#E2E5E6;}
	.st47{fill:#DADCDF;}
	.st48{fill:#D8DBDE;}
	.st49{fill:#DCDEE0;}
	.st50{fill:#F19090;}
	.st51{fill:#F49696;}
	.st52{fill:#DEDEDE;}
	.st53{fill:#EAE9E9;}
	.st54{fill:#F3F3F3;}
	.st55{fill:#F18F8F;}
	.st56{fill:#2F363D;}
	.st57{fill:#31373E;}
	.st58{fill:#3B3D43;}
	.st59{fill:#383B42;}
	.st60{fill:#28343B;}
	.st61{fill:#EEE8EF;}
	.st62{fill:#DFE8F6;}
	.st63{fill:#A0BBE3;}
	.st64{fill:#C0D2ED;}
	.st65{fill:#28333B;}
	.st66{fill:#EAE4EB;}
	.st67{fill:#E0D6E2;}
	.st68{fill:#DFDFDF;}
	.st69{fill:#576167;}
	.st70{fill:#5B656B;}
	.st71{fill:#606D74;}
	.st72{fill:#F3F4F5;}
	.st73{fill:#F7F8F8;}
	.st74{fill:#F6F7F7;}
	.st75{fill:#DCDCDC;}
	.st76{fill:#D9D8DA;}
	.st77{fill:#DBDADB;}
	.st78{fill:#D9D7D9;}
	.st79{fill:#DBD9DB;}
	.st80{fill:#DAD8DA;}
	.st81{fill:#DFD7E0;}
	.st82{fill:#ECE7ED;}
	.st83{fill:#E1DAE2;}
	.st84{fill:#EEEEEE;}
	.st85{fill:#E0E0E0;}
	.st86{fill:#D7DEFA;}
</style>
<desc>Created with Fabric.js 4.6.0</desc>
<g id="mEa_zuCcJ-75cJeb5cf_n" transform="matrix(1 0 0 1 514.34 486.86)">
	<g>
		<path class="st0" d="M-14.3,512.7c-165.1,0-330.3,0-495.4,0.1c-3.7,0-4.6-0.8-4.6-4.6c0.1-330.3,0.1-660.5,0-990.8
			c0-3.7,0.8-4.6,4.6-4.6c330.3,0.1,660.5,0.1,990.8,0c3.7,0,4.6,0.8,4.6,4.6c-0.1,330.3-0.1,660.5,0,990.8c0,3.7-0.8,4.6-4.6,4.6
			C315.9,512.7,150.8,512.7-14.3,512.7z"/>
		<path class="st1" d="M205,268c10.1,5.8,20.2,11.4,30.2,17.3c9,5.3,9.1,12,0.2,17.3c-13,7.7-26.1,15.1-39.2,22.7
			c-20.9,12-41.8,23.9-62.6,35.9c-20.8,12-41.6,24.1-62.4,36.2C63,402,55,407,46.7,411.4c-11,5.7-21.8,4.1-32.2-2
			C-11,394.7-36.4,380-61.8,365.3c-22.4-13-44.7-26-67.1-39c-24.9-14.3-49.8-28.6-74.6-42.9c-22.4-12.9-44.7-26-67.1-39
			c-11.5-6.7-23-13.3-34.5-19.8c-6.8-3.8-7.4-10.8-0.7-14.9c10.6-6.5,21.5-12.5,32.3-18.8c2.1,1.9,1.7,4.5,1.7,6.9
			c0.1,11.4,0.1,22.7,0,34.1c0.6,4.3,3.8,4.5,7.1,4.2c3-0.2,5.8-1.5,5.8-5c0.1-16,0.6-32.1-0.2-48.1c0-0.6-0.3-1.3-0.5-1.9
			c-0.4-2-0.4-4-0.4-6c0-35.2,0-70.3,0.1-105.5c0-2.8-1.3-6.5,2.9-7.9c1.9,1.4,1,3.4,1,5.1c0,35.1,0,70.2,0,105.4c0,0.8,0,1.7,0,2.5
			c-0.1,3.4,1.3,3.6,4,2.1c30.9-18,62-35.8,92.9-53.8c1-0.6,1.9-1.4,2.9-2c1.7-0.9,3.2,0,4.7,0.8c13.1,7.5,26.2,15,39.1,22.7
			c1.5,0.9,3.3,1.7,3.8,3.7c0.3,2.7-0.6,5.3-1,7.9c-1.2,6.2-1.5,12.5-3,18.6c-0.5,2.1-0.8,4.2-2.2,6c-4.2,1.4-6.3,4.5-8.2,8.5
			c-2.8,6.1-8.4,9.7-14.4,12.4c-6.1,2.7-12.3,5.1-18.5,7.3c-1.6,0.6-3.1,1.2-4.6,1.9c-6.8,3.5-8.1,7.8-4.5,15.7
			c2.5,4.1,6.5,5.5,11,5.9c11.2,1,21.9-0.5,31.5-6.6c7.4-4.7,15.3-6.9,24.1-6.3c3,0.2,5.9-0.3,8.7-1.7c1.1-0.6,1.7-1.5,2.1-2.6
			c0.5-10.3,0.8-20.7-2.6-30.7c-1.2-7.7,2.5-14.1,5.4-20.8c0.3-0.5,0.7-0.8,1.2-1.1c3.2-0.5,5.1,1.3,6.6,3.7
			c0,9.1-1.9,18.1-2.5,27.1c-0.1,1.3-0.4,2.6-0.1,3.9c0.4,1.8,1.5,3,3.3,3.3c2.3,0.4,3.3-1.3,3.9-3.1c1.3-4.3,1.6-8.8,2.6-13.1
			c0.8-3.8,0.5-8,2.8-11.5c0.2-0.2,0.6-0.6,0.8-0.5c7.2,2.2,14.1,4.9,18.7,11.4c0.2,2.7-0.8,5.2-1.1,7.8c-1.4,7.3-1.6,14.9-4.3,22
			c-3.4,2.2-4.8,5.5-5.7,9.4c-2.8,12.4-12.1,19.9-21.2,27.5c-4.6,3.8-8.5,7.8-9.8,13.9c-0.3,1.5-0.7,2.9,0.2,4.3
			c5.1,9.3,13.6,11.2,23.2,10.8c8-0.4,14.9-2.9,18.7-10.7c1.3-3.1,2.7-6.1,4-9.2c1.7-3.4,4-6.4,7.1-8.6c2.5-1.7,4.3-4,5.1-7
			c0.8-4.9,1.7-9.8,2.7-14.7c0.8-3.9,0.6-7.6-0.9-11.2c-0.4-7.5,2.9-13.8,6.4-20.1c0.5-0.4,1-0.6,1.7-0.5c2.6,0.3,4.6,1.8,6.8,3
			c8.5,4.9,17.1,9.7,25.5,14.7c3.5,2.1,5.3,4.9,5.1,8.9c-0.1,2.2,0,4.3,0,6.5c0,56-0.1,112.1,0.1,168.1c0.2,4.2,3.3,4.5,6.4,4.5
			c3,0,5.7-0.9,5.4-4.8c0-53.5,0-107.1,0-160.6c0-4.2,0-8.3,0.9-12.4c0.4-6.3,4-9.9,9.3-12.9c24.3-13.7,48.4-27.8,72.6-41.7
			c1.3-0.7,2.5-1.6,3.9-2.2c3.7-1.6,5.2-0.9,6,3c1.1,5,1.9,10.1,2.8,15.2c0.2,1.3,0.4,2.6,0.9,3.9c0.6,1.8,1.4,3.7,3.7,3.2
			c2.2-0.5,2.7-2.2,2.5-4.3c-0.4-4.5-1.2-8.9-1.9-13.3c-0.4-2.3-1.1-4.6,0.9-6.6c7.6,1.5,14,5.6,18.6,11.5
			c6.1,7.9,3.7,19.4-4.5,25.1c-4.9,3.4-10.3,6-15.4,9.2c-1.4,0.9-3.1,1.3-4.1,3.4c8,4.9,16.2,9.5,24.4,14.3
			c11.5,6.7,23.1,13.3,34.6,19.9c4.4,2.6,4.9,2.3,4.9-2.9c0-39.4,0-78.9,0-118.3c0-1.7-0.7-3.7,0.8-5.2c2.4-0.3,2.6,1.6,2.9,3.2
			c0.4,2,0.3,4,0.3,6c0,50.4,0,100.8,0,151.1c0,3-0.1,6-0.3,9c-0.2,4.2,3.2,4.2,5.8,4.3c3.1,0.1,6.1-0.5,6.2-4.6
			c0.1-7.1-0.1-14.3,0.1-21.4C203.4,272.2,203,269.7,205,268z"/>
		<path class="st2" d="M-134.7-396.1c2.2,1.7,5.5,2.4,5.7,5.9c-0.3,4.6-0.5,9.2,0.1,13.8c0.1,7.8,0.1,15.6,0.2,23.3
			c0,1.8-0.5,3.7,0.8,5.2c-3.3,4.8-8.8,6.2-13.4,9c-6.9,4.2-13.9,8.4-21.1,12.2c-1.9,1.1-3.5,2.5-4.2,4.7c-0.6,1.5-0.8,3.2-1.7,4.7
			c-9.1,6-19,10.8-27.9,17.3c2.1,0.2,3.8-0.9,5.4-1.9c6-3.6,12-7.2,18.1-10.4c1.4-0.7,3-2.7,4.7-0.2c0.9,3.4,0.8,6.8,0.2,10.2
			c-0.9,2.7-3.4,3.5-5.5,4.7c-21.5,12.3-42.9,24.6-64.3,37.1c-2.2,1.3-4.7,2.3-7.1,5.4c6.4-2.4,11-5.6,15.9-8.4
			c18.3-10.6,36.5-21.1,54.8-31.6c1.8-1,3.8-3.4,6.1-0.5c1,3.4,0.8,6.8,0.2,10.3c-1.4,3-4.8,3.4-7.1,5.2c-1.5,1.2-3.5,1.7-5.4,4.1
			c3.7-0.7,5.7-2.5,8.1-3.5c1.4-0.6,2.9-2.2,4.3,0.1c0.9,3.7,0.8,7.4,0.2,11.1c-0.7,2.3-2.8,3.2-4.6,4.3
			c-22.3,13.2-44.9,25.9-67.2,39c-1.5,0.9-3.4,1.4-4.2,3.7c4.3-0.8,7.4-3.4,10.7-5.3c19.5-11.4,39.1-22.5,58.6-33.9
			c1.9-1.1,3.9-3.5,6.5-0.9c0.9,3.4,0.8,6.8,0.1,10.2c-1.6,3-4.8,3.9-7.5,5.5c-6.3,3.7-12.6,7.4-18.9,11c-0.9,0.5-2.2,0.9-2.3,2.4
			c1.5,0.9,2.5-0.4,3.5-1c6.3-3.8,12.7-7.3,19-11c1.6-0.9,3.1-2.1,5.1-1.5c1.4,1,1.9,3,3.6,3.7c3.2,1.2,5.4-1,7.7-2.4
			c7.2-4.1,14.4-8.1,21.5-12.4c2.2-1.3,4.3-3.2,7.2-2.5c0,26.1,0.2,52.2,0,78.3c-0.1,9.5-4.5,16.7-12.9,21.5
			C-196.5-128-251.2-96.3-306-64.7c-26.6,15.4-53.2,30.6-79.7,46.1c-5.1,3-9,2.2-12.8-1.8c-1.2-3.7-1.5-7.5-1.5-11.3
			c0-60.9,0-121.7,0-182.6c0-6.8,0.6-13.6,1.3-20.4c1.2-11.3,8.5-18,18.9-21.5c0.9,0,1.7,0.1,2.3,0.8c0.2,3.5-2.8,4.1-5,5.3
			c-8,4.5-12.1,11.2-11.8,20.4c0.1,4.3,0.5,4.5,4.2,2.4c23.5-13.8,47.2-27.3,70.9-40.9c51.3-29.6,102.5-59.2,153.8-88.8
			c9.5-5.5,19.1-10.9,28.5-16.4c4.6-2.7,6.6-11.6,3.7-16.1c-2.1-3.2-4.5-1.8-6.9-0.4c-9.8,5.9-19.9,11.3-29.8,17.2
			c-1.8,1.1-3.6,2.5-6,2.1c-0.8-0.3-1.3-0.8-1.4-1.6c0.1-1.6,1.3-2.2,2.4-2.9c11.1-6.4,22.2-13,33.4-19.3
			C-139.3-395.4-137.1-396.3-134.7-396.1z"/>
		<path class="st3" d="M-272.6,15.9c20.5-11.9,41-23.9,61.5-35.8c25.1-14.6,50.3-29.2,75.4-43.7c2.8,0.4,2.2,2.9,2.5,4.6
			c3.1,18.3,5.7,36.7,8.6,55.1c0.6,3.6,2,6.1,5.2,7.9c35.9,20.6,71.6,41.4,107.4,62.1c0.6,0.3,1.2,0.6,1.8,0.8
			c2.2,0.9,3.8-0.4,5.5-1.4C13.6,55,31.8,44.4,50.1,33.9c1.2-0.7,2.3-1.3,3.3-2.3c3.6-3.4,3.4-5.3-0.9-7.9c-1.9-1.2-4.3-1.9-4.9-4.6
			c0.4-2.5,1.9-4.5,3.7-5.7c6.3-3.9,12.4-8.4,19.8-10.2c5.1,0.7,8.7,4.7,13.7,5.6c0.7,0.6-0.9,1.5,0.9,2.3c4.8,2,9.6,4.4,13.5,8
			c0.5,1.5-0.1,2.9-0.4,4.4c-2,5.2,1.9,9,3.3,13.3c0.8,12.6,2.1,25.2,3.2,37.8c0.4,4.6,2.6,7.3,6.8,8.9c3.8,1.4,7.6,2.6,11.7,2.2
			c9.8-0.9,13.9-4.5,15.2-14.2c0.8-6.3,1.1-12.6,1.6-18.9c0.2-2.6,0.1-5.4,2.4-7.3c20.3,11.6,40.5,23.3,60.8,34.9
			c0.4,0.2,0.6,0.7,0.9,1.1c-0.6,1.7-1.8,2.7-3.3,3.5c-22,12.5-43.8,25.3-65.7,37.8c-30.6,17.5-61,35.3-91.5,53
			c-4.6,2.7-9.4,5-14.1,7.5c-3.9,2-6.8,4.5-7.7,8.9c-0.3,0.2-0.9,0.2-0.9,0.1c-2-6.2-7.7-8.3-12.6-11.1
			C-7.6,171.9-23,161-39.7,152.4c-20.9-10.7-40.2-24.1-60.9-35.3c-49.9-27-98.4-56.6-147.7-84.5c-6.8-3.8-13.5-7.9-20.3-11.8
			C-270.5,19.8-273.1,19-272.6,15.9z"/>
		<path class="st4" d="M-272.6,15.9c3.2,4.6,8.6,6.1,13.1,8.7c23,13.5,46.1,26.9,69.3,40.2c24.9,14.3,49.7,28.6,74.6,42.8
			c16.4,9.3,33.3,17.7,49.2,27.9c16.6,10.7,34.8,18.6,51.2,29.4c11.2,7.4,22.9,13.9,34.6,20.6c2.9,1.7,0.7,4.8,2.8,6.5
			c1.8,1.7,1.4,4,1.5,6.1c0.1,6,0,11.9,0,17.9c0,2.3-0.3,4.4,3.3,3.6c3.7-0.8,2.2,2.7,3,4.3c-1.3,57-0.2,113.9-0.6,170.9
			c0,2-0.2,4-0.3,5.9c-4.9,2.3-9.8,2.4-14.7,0c-0.1-2-0.3-4-0.3-6c0-57,0-114,0.1-171c0-3.4-0.9-5.3-4-7c-11.1-6-22-12.4-32.9-18.6
			c-7.5-1.9-13.3-7.1-20-10.4c-2-1-4.2-1.9-5.8-3.7c-5.1-5.2-11.7-7.9-18.2-11c-4.3-1.4-8.2-3.4-11.2-6.9c-1.9-1.1-3.5-2.7-5.7-3
			c-6.3-1.3-11-5.9-16.5-8.7c-3.3-1.7-7.1-3-9.4-6.3c-15-9.5-30.6-18.1-46.1-26.8c-2.1,0.6-3.5-0.8-5-1.6
			c-30.8-17.7-61.5-35.6-92.2-53.3c-1.4-0.8-3.1-1.3-3.5-3.2c-0.7-0.7-1.5-1-1.7,0.2c-0.2,1.5-0.1,3-0.1,4.5c-0.1,38-0.1,76-0.2,114
			c0.9,10.6,0.2,21.3,0.4,31.9c0.1,5.5,0,11,0,16.5c0,2.1-0.6,3.8-2.8,4c-4.2,0.4-8.6,1.5-12.6-1.2c-0.1-14-0.2-28-0.3-42
			c0.1-22.9,0.1-45.8,0.2-68.8c0-33.7,0-67.5,0-101.2C-273.5,19.4-274.3,17.4-272.6,15.9z"/>
		<path class="st5" d="M29.9,224c-0.9-6.2-4.5-2-7.9-1.5c0-10.3,0-20.4,0-30.4c-1-5.2,2.3-7,6.2-9.2c25.4-14.3,50.7-28.8,76-43.4
			c32.8-18.9,65.6-37.8,98.4-56.7c0.7-0.4,1.3-1,2-1.5c0.1,12.1,0.2,24.3,0.2,36.4c0,48.8,0,97.5,0,146.3c0,1.3,0.1,2.7,0.2,4
			c-0.1,10-0.3,19.9-0.4,29.9c-5,2.5-9.9,2.3-15,0.2c-0.1-12.2-0.2-24.4-0.2-36.6c0-43.3,0.1-86.6,0-129.8c0-1,2.2-4.2-1.8-3.6
			c-5.3,5.5-12.3,8.2-18.7,11.9c-11.7,6.9-23.3,14-35.3,20.2c-4.6,2.4-4.1,6.2-4.7,10c0.8,6.2,1.5,12.5,2.5,18.7
			c0.5,3.4,0,6.3-3.6,7c-3.5,0.6-4.8-2.3-5.4-5.2c-1.4-7.3-2.7-14.6-4.1-21.9c-2-0.3-3.1,0.9-4.3,1.6c-26,15-52,30.1-78.1,44.9
			C32.2,217.3,30.2,219.9,29.9,224z"/>
		<path class="st2" d="M60.2-153.8c0.6,0.1,1.2,0.1,1.8,0.2c5.9,1.5,11.3,4.2,16.6,7.1c1,0.6,1.9,1.4,1.8,2.7
			c-8.9,11.5-7.5,24.6-5.7,37.8c2,14.7,4.7,29.2,7.2,43.8c0.6,3.2,1.7,6.1,4.4,8.1c1.5,2.4,1.8,5,2.1,7.7c0,1.5,0.3,3,0.1,4.6
			c-3.1,4.5-8.1,6.6-12.3,9.8C67.9-25.7,59.1-20.1,51-13.6c-1.8,1.4-3.4,3.3-6,3.3c-13.2-7-26-14.8-39-22.3
			c-1.6-0.9-3.1-1.9-3.8-3.8c-0.6-2.3-0.5-4.5,0-6.8c1-12.3,0.2-24.7,0.3-37c0-1-0.2-2-0.1-3c2.1-16.3,1.2-32.8,3.3-49.1
			c0.9-6.7,1.3-13.6,4.2-19.9c1.2-2.5,2.5-5.1,4.8-6.9c3.9-1.6,8-1,12-1.1c2.3,0.9,2.6,2.7,2.4,4.8c-0.1,1-0.5,2-0.6,3
			c-1.1,7.9,2.1,12,10,12.4c6.8,0.3,12.1-2.6,16.1-8.1c1.4-2,2.2-4.5,4.3-5.9C59.3-154,59.8-154,60.2-153.8z"/>
		<path class="st6" d="M-10.2,68.4c-22.3-12.8-44.6-25.7-67-38.5c-14.5-8.4-29-16.9-43.6-25.1c-3-1.7-4.5-3.7-5-7.2
			c-2.9-19.9-6-39.7-9-59.6c-0.1-0.6-0.6-1.1-0.9-1.6c-0.1-3.1,0.2-6.3-0.8-9.4c-0.6-1.8,0-3.6,1.7-4.9c1.8-1.4,2.9,0.2,4.4,0.7
			c3.5,1.1,5.7,5.1,9.9,4.6c12,7.4,24,14.9,36.1,22.1c10.6,6.9,21.6,13.1,32.2,20c8.7,5.1,17.2,10.6,25.9,15.7
			c4.1,2.4,6.9,5.6,7.8,10.3c0.7,3.3,1.1,6.7,1.8,10c0.5,2.7-0.1,5.5,0.9,8.1c2.5,13.1,4,26.4,6.3,39.6c0.7,4,1.3,8.1,1.1,12.2
			C-8.4,66.6-7.7,68.6-10.2,68.4z"/>
		<path class="st3" d="M-128.8-259.4c-10.5,5.9-20.9,11.9-31.4,17.8c-1.7,0.9-3.5,3-5.7,0.5c-0.1-1.2-0.4-2.3-0.4-3.5
			c0.1-24,0-47.9,0.1-71.9c0-1,0.1-2,0.3-3c1.1-4.1,4.4-6,7.7-8c29.2-16.9,58.5-33.4,87.5-50.7c2.5,0.4,2.9,2.2,2.9,4.4
			c0,24.7,0,49.5,0,74.2c0,4.1-2.3,6.2-5.5,8.1c-17.4,9.9-34.7,19.9-52,29.9C-126.6-260.9-127.7-260.1-128.8-259.4z"/>
		<path class="st7" d="M80-144.5c-5.9-3.3-12.4-5.2-18-9.1c13.4-12.5,33.4-15.5,50.9-4.6c22,13.8,33.5,34.4,39,58.9
			c5.6,24.8,4.8,49.8,1.5,74.8c-1.9,14.6-4.3,29.2-8.7,43.3c-2.5,0.8-3.5-1.5-5.1-2.4c-7.5-6-16.1-7-25.2-5.2c-2,0.4-4.1,1.6-6-0.3
			c-1.8-4.4-0.4-9.1-1.2-13.6c0.4-3.9-0.1-7.9,0.9-11.8c1-2.1,2.7-3.3,4.6-4.4c8.9-5.1,11.1-12.9,9.6-22.4
			c-0.8-5.1-1.6-10.1-1.7-15.3c0-21.8-5.1-42.8-12.1-63.3c-3.7-10.9-11.5-18-22.5-21.5C83.9-142,81.5-142.4,80-144.5z"/>
		<path class="st8" d="M-378.5-255.5c-12.3,5.2-18.7,12-19.1,27c-1.6,66-0.1,132-0.9,198c0,3.3,2.6,6.7,0,10
			c-6.1-2.6-7.8-7.3-7.8-13.6c0.1-66.7,0.1-133.4,0.1-200.1c0-11.1,4.4-19,14.4-24.8c80.3-46.1,160.4-92.5,240.6-138.9
			c8.2-4.7,8.4-4.7,16.6,1.8c-14.4,7.1-28.1,15.6-41.9,23.8c-4.5,4.9-10.7,7.1-16.3,10.3c-29.2,17-58.4,33.8-87.7,50.7
			c-30.7,17.7-61.4,35.4-92,53.2C-374.4-256.9-376.4-256-378.5-255.5z"/>
		<path class="st9" d="M27.1-159.5c-3.9,1.8-8.1,0.5-12.1,1.3c-3.5,1.4-6.2-0.1-8.7-2.4C-3.1-171.6-4.9-185-6-198.7
			c-2.5-8.5-1.3-16.8,1.1-25c1.1-3.6,3.7-3.8,6.8-3c5.1,1.4,10.3,2.7,15.7,2.9c7.4,0.2,14.6-1.1,21.7-2.9c8.8-2.2,10.8-0.8,12.6,8.2
			c0.5,2.6,0.6,5.3,0.7,7.9c0,3.7-0.2,7.3,0.1,11c0.1,1.6-0.2,3.9,1.6,4.3c1.9,0.4,2.3-1.9,3.2-3.2c1.4-2.1,2.6-4.3,4.4-6
			c3.7-3.5,7.7-3.6,12-0.3c6.4,8.9,5.3,16.4-3.2,23.2c-1.5,1.2-3.3,2.2-4.3,3.9c-5.4,0.3-4.5,5.3-6.3,8.3c0,4.9-0.1,9.9-0.1,14.8
			c-1.7,1.2-3.7,1.4-5.7,1.4c-7.4-0.1-14.9,0.3-22.3-0.2c-3.1-1.1-1.9-2.6-0.1-3.7c4.1-2.3,7.8-5.3,11.1-7.3
			C38.3-162.4,33.7-157.8,27.1-159.5z"/>
		<path class="st4" d="M330.6,191.1c0.8,13.1-1.9,25.9-4,38.7c-0.1,8.4-3.4,15.8-8.3,22.4c-4.4,6-11.4,7.9-18.4,9
			c-4.3,0.6-8.7,0.4-13,0c-11.1-1.1-18.9-6.9-23-17.3c-1.5-3.8-3.6-7.6-3.1-11.9c-2-11.8-4.4-23.6-4.2-35.7
			c-0.4-1.4-0.8-2.8,0.1-4.1c0.9-0.3,1.4,0.1,1.8,0.6c8.3,9.8,19.5,12.5,31.7,12.9c9.2,0.3,18.2-0.2,26.7-4.3
			c4.1-2,7.9-4.3,10.5-8.1C328.3,192.2,329,190.9,330.6,191.1z"/>
		<path class="st5" d="M73.8-204.8c-8.4-2.2-10.5-1.2-14.8,6.4c-1.5,2.7-2.6,7.1-5.9,6.4c-2.6-0.6-1.6-5.2-1.8-8.1
			c-0.5-6.9,0-13.9-1.3-20.8c-1.1-5.6-2.4-6.6-7.7-5c-14.2,4.1-28.3,5.6-42.4,0c-3-1.2-3,1.1-3.5,2.6c-2.6,8-2.5,16.3-2.4,24.6
			c-4.9-5.5-4.5-12.2-4.1-18.8c0.1-2,0.5-4,1.2-5.9c1.6-4.2,0.8-7.1-2.7-10.2c-4.2-3.7-6-9-6.1-14.8c-0.1-3.9,1.5-5.3,5.2-3.8
			c1.9,0.7,3.7,1.5,5.6,2.2c7.4,2.8,14.8,3.4,22.5,1.2c8.6-2.5,17.3-4.8,26.4-4.6c8.1,0.1,15.2,2.3,19,10.3c0.7,1.4,1.7,1.7,3.1,2.1
			c5.5,1.4,8.7,5.1,10.2,10.5C76.4-221.9,75.6-213.4,73.8-204.8z"/>
		<path class="st2" d="M309,122c10.3-7.7,21-14.6,33.3-18.7c8-2.7,16.2-4.4,25.7-5.4c-8.4,11.1-14.7,22.2-21.2,33.1
			c-1.1,2-2.8,2-4.7,2.1c-6.5,0.4-12.6,2.2-19.9,4.6c6.7,0.6,12.1,1.1,18.1,1.6c-3.3,5.2-6.4,10-9.5,14.9c-0.9,1.4-2.4,1.6-3.9,1.9
			c-5.5,1.3-10.9,2.7-17,4.3c5.9,2.1,11.4,1.2,17.2,1.9c-2.2,3.9-4.2,7.6-6.3,11.3c0.1,2.6-2,4-3.1,6c-1.6,2.3-3.8,4.2-5.7,6.3
			c-3.9,3.1-7.6,6.4-12.5,8c-1.7,0.6-3.4,1.6-5-0.2c-0.1-0.5-0.2-1,0-1.5c5-10.4,4.1-20.9,0.9-31.5c3.1-8,6.4-15.8,11.6-22.7
			c-5,6.4-8,13.9-11.2,21.2c-3.8-2.8-5-7.2-6.8-11.3c-0.1-2.1,0.9-3.9,2-5.5c2.3-3.2,3.2-6.9,4.5-10.4c0.8-0.2,1.6-0.4,1.5,0.9
			c0.8-0.7-0.1-1.2-0.2-1.8c-0.3-1.7-0.3-3.3,0.5-4.8c3.5-1.1,1.8,2.4,2.9,3.2C303.1,127.1,305,123.4,309,122z"/>
		<path class="st10" d="M289.7,148c2,3.7,4,7.4,5.9,11.1c0.3,0.1,0.5,0.3,0.5,0.5c-0.1,0.2-0.1,0.4-0.2,0.4
			c4.7,11.5,5.5,22.8-1.2,33.9c-2.4,2.3-5.2,1.3-7.8,0.7c-5-1.2-9.4-3.6-13.2-7.2c-2-1.7-3.6-3.7-5.4-5.6c-1.9-2-4-3.7-4.5-6.6
			c-1.2-1.7-2.5-3.5-4-5.7c3.7-1.7,7.5-1.7,11-2.6c0.6-0.7,2.6,0.3,1.9-1.7c-1.8-0.3-3.6-0.6-5.4-0.9c-12.1-1.9-14.8-3.8-21.2-15
			c3.7-1.5,7.7-1.8,11.6-2.4c0.9-0.6,0.9-1.2,0-1.8c-4.9-0.8-9.9-1.5-14.9-1.2c-1.6,0.1-2.9-0.2-3.9-1.6
			c-6.9-9.3-13.6-18.8-22.2-27.9c12-0.2,22.7,1.4,33,5c5.2,1.8,10.2,3.9,14.9,6.9c0.9,0.6,1.9,2.2,3.4,0.7
			C275.7,133.6,285.4,138,289.7,148z"/>
		<path class="st8" d="M289.7,148c-5.5-7.2-12.5-12.8-19.9-18c-0.8-0.6-1.2-1.9-1.8-2.8c-0.7-5.9-1.4-11.7-2.2-18.1
			c6.3,1.6,11.9,3,17.5,4.3c-3.8-4.6-8.7-7.3-13.5-10c-3.8-2.1-6-4.7-6.7-9c-0.6-3.9-1.8-7.7-2.8-12.1c5.3,1.5,10.1,2.9,14.9,4.2
			c0.2-0.4,0.5-0.9,0.7-1.3c-4-2.7-7.8-5.6-11.9-7.9c-3.7-2.2-6.4-4.9-7.9-9c-2.3-6.3-6.4-11.6-10.3-16.9c-0.1-1.9,1-1.6,2.2-1.2
			c27.7,5.5,53.6,32.4,59.6,62.1c0.7,3.2,0.9,6.6,1.4,9.9c-3.2,3.5-6.4,7-9.7,10.6c-1.3-2.2,0.1-4.6-1.3-6.4
			c-2.3-3.1-1.3-6.8-2-10.2c-0.7-3.1-1.1-6.4-1.7-9.5c-0.5-1.1-0.5-2.4-1-3.8c0.4,1.9,0.7,3.5,1.2,5.1c1.3,8.1,3.5,16.2,1.4,24.5
			C296.8,138.6,291.3,142.5,289.7,148z"/>
		<path class="st1" d="M261,232c1.2,3.2,2.5,6.5,3.7,9.7c3.4,9.8,9.8,15.9,20.2,17.7c5.8,1,11.6,1,17.3,0.1
			c15.4-2.3,20-14.2,23.6-26.9c0.3-0.9,0.6-1.9,0.8-2.8c1.2,3.7,4.9,4.7,7.6,6.8c11.5,8.9,11.4,23-0.2,31.9
			c-9.4,7.2-20,10.3-31.6,11.7c-15.5,1.9-30-0.6-43.7-7.8c-7.5-4-13.7-9.5-14-19C244.6,243.6,251.1,235.2,261,232z"/>
		<path class="st9" d="M-52.8-29.5c-10.6-6.6-21.3-13.1-31.9-19.7c0.5-1.7,2.1-2,3.4-2.4c11.1-4,22.8-6.5,33.5-11.7
			c0.6-0.3,1.3-0.2,2-0.2c10.6-4.7,21.3-9.3,31.9-14c0.8-0.8,1.7-0.5,2.7-0.4c-0.6-1-1.7-0.2-2.5-0.6c0.3-4.6,0.6-9.2,0.9-13.8
			c0.4-0.3,1-0.5,1.4-0.2c4.4,3.7,10,5.6,14.6,9.1C3.4-82.9,4-82.3,4-81.7c0,13,0.6,26-0.4,39c-0.3-0.1-0.7-0.2-0.8-0.5
			c-2.6-5.9-2.6-5.9-9-4.2c-2.9,0.7-5.7,1.7-8.5,2.6c-8,1.5-15.8,3.7-23.6,5.9c-2.4,0.7-4.6,1.8-6.4,3.6
			C-47.4-33.3-48.1-28.6-52.8-29.5z"/>
		<path class="st11" d="M143,45.3c-0.9,9.1-1.7,18.1-2.8,27.2c-1.2,9.7-5.4,13.6-15.3,14.6c-5.6,0.6-10.9-0.8-15.8-3.3
			c-2.8-1.5-4.7-3.7-5-7c-1-13.5-2.9-27-3.1-40.6c1.2-0.6,2.3-0.1,3.3,0.4c11.7,6.1,23.3,6.1,35.1,0.3c3.5-1.7,4.1-1.2,3.8,3.4
			C143.1,41.9,143,43.6,143,45.3z"/>
		<path class="st3" d="M-45.8-63.6c-5.5,3.5-11.4,5.9-17.6,7.8c-7.1,2.1-14.2,4.4-21.3,6.6c-11.2-6.8-22.3-13.7-33.5-20.5
			c-1.1-0.6-2.6-1-2.3-2.8c9.1-5.1,18.2-10.3,27.3-15.5c1.6-0.9,2.8-1.8,4.9-0.5C-74.2-80.1-60-71.9-45.8-63.6z"/>
		<path class="st12" d="M3.1-83.5c-6.2-1.4-11.1-5.1-15.9-8.9c-1.1-1.2-1.8-2.5-1.5-4.4c2.2-14,3.5-28.2,6.3-42.1
			c1.9-9.2,6.2-16.6,14.3-21.7c2.9,0.8,5.8,1.6,8.7,2.4c-6,8.4-6.8,18.2-8,28.1c-1.8,14.6-1,29.3-2.8,43.9C4.1-85.1,4-84.2,3.1-83.5
			z"/>
		<path class="st3" d="M263.8,175.1c1.7,2,3.3,3.9,5,5.9c-2,3.2-4.4,6.3-1.1,10.1c2.2,3.3,5.4,5.3,9.1,6.5
			c11.6,3.9,23.1,4.1,34.5-0.5c3.3-1.3,6.3-2.9,8.3-6c2.6-3.1,1.8-6.1-0.6-8.8c-0.9-1-1.9-1.8-2.2-3.2c1.3-1.8,2.6-3.5,4-5.3
			c6.8,3.7,11.4,8.8,9.8,17.3c-5.9,11-16.7,14.4-27.7,15.6c-10.7,1.2-21.8,1.2-32.1-3.5c-5.3-2.4-10.3-5-13.6-10.7
			c-0.2,1.6-0.3,2.7-0.5,3.8C254.9,187.8,256.1,180.4,263.8,175.1z"/>
		<path class="st13" d="M-70.8-378.2c0,2.3-2,2.8-3.5,3.7c-20.4,11.8-40.7,23.6-61.1,35.3c-7.2,4.1-14.3,8.5-21.6,12.4
			c-2.8,1.5-5.1,3.6-7.7,5.5c-1.4,0.7-2.2-0.1-3-1c0.2-2.7,2.2-3.9,4.2-5.1c11.8-6.8,23.7-13.6,35.5-20.4
			c17.1-9.8,34.2-19.7,51.4-29.4C-74.8-378.1-73.1-380.4-70.8-378.2z"/>
		<path class="st14" d="M141,16.3c1.3,0.9,2.6,1.8,3.8,2.6c1.4,3.7,3.6,7.3,1.2,11.3c-9.6,13.2-32.3,12.3-43.2,5.1
			c-4.5-3-6.3-7.1-5-12.4c0.3-1.2,0.7-2.5,1-3.7c0.8-1.9,1.8-3.5,4.3-3c0.9,2.2,0.2,4.6,0.7,6.9c0.3,4.8,3.9,6.9,7.7,8.2
			c7.6,2.6,15.4,2.8,22.8-0.9c3-1.5,5.7-3.5,5.8-7.4C140.6,20.9,139.7,18.5,141,16.3z"/>
		<path class="st15" d="M97.9,23c0.4,8.1,3.4,11.9,11.3,14.2c13,3.7,25.2,3.3,35.6-6.7c0.4-0.4,0.7-0.6,1.2-0.1
			c-1,3.3-1.9,6.6-2.9,9.9c-0.1-1.1-0.2-2.3-0.4-3.6c-14.2,7.9-28.1,8.2-41.8-0.5C98.2,32.1,95.6,28.1,97.9,23z"/>
		<path class="st16" d="M30.1-154.5c9.9,0,19.9,0,29.8,0c0.2,0.2,0.3,0.5,0.4,0.8c-0.4,0.1-0.7,0.2-1.1,0.3c-1,0.6-2,1.3-3.2,1.3
			c-9.6,0.2-19.1,0.9-28.7-0.3c-0.1-0.8,0-1.5,0.8-2C28.7-155.1,29.4-155.1,30.1-154.5z"/>
		<path class="st17" d="M60-169.3c0-1.3-0.1-2.6,0-4c0.1-4.7,1-5.4,6.3-4.4C64.6-174.6,63.7-171,60-169.3z"/>
		<path class="st18" d="M-13.7-78.6c3.4-2.9,4.2,0.2,5.8,2.3c-2.6,0.8-4-1.5-6-1.3C-13.8-78-13.7-78.3-13.7-78.6z"/>
		<path class="st19" d="M-128.9-376.3c-1.5-4.6-1.2-9.2-0.1-13.8C-129-385.5-128.9-380.9-128.9-376.3z"/>
		<path class="st20" d="M257.7,145.2c0.9-0.1,2.4-0.3,2.5,0.7c0.1,1.7-1.5,1.1-2.5,1.1C257.7,146.4,257.7,145.8,257.7,145.2z"/>
		<path class="st21" d="M248,50.1c-0.8,0.3-1.8,0.2-2.2,1.2c-0.8-0.3-1.6-1.2-1.1-1.7C245.7,48.7,247,49.2,248,50.1z"/>
		<path class="st20" d="M272.7,165.2c0.6-0.1,1.7,0.1,1.5,0.6c-0.6,1.4-2.1,1.2-3.4,1.1C271.5,166.4,272.1,165.8,272.7,165.2z"/>
		<path class="st0" d="M-256.5,63.2c28.2,16.2,56.3,32.4,84.5,48.6c5.5,3.1,10.9,6.4,16.3,9.6c-0.2,2-2,2.6-3.3,3.4
			c-22.4,13-44.8,25.8-67.2,38.8c-9,5.2-18.1,10.5-27,15.9c-3,1.8-4.2,2-4.2-2.2c0.1-36.8,0-73.5,0.1-110.3
			C-257.4,65.6-257.7,64.2-256.5,63.2z"/>
		<path class="st0" d="M129,170.1c-2.1-7.3-2.1-7.3,4.2-10.9c18.2-10.4,36.3-20.8,54.5-31.2c1.9,1.6,1.1,3.7,1.1,5.6
			c0,39.4,0,78.8,0,118.3c0,1.9,1.1,4.5-0.9,5.5c-1.6,0.8-3.2-1.3-4.7-2.2c-20.4-11.7-40.9-23.4-61.3-35.2c-0.4-0.2-0.8-0.6-1.7-1.4
			c6.8-3.9,13.2-7.7,19.7-11.5c9.8-5.7,12.8-15.8,7.1-24.9c-2.9-4.7-8.2-6.5-12.6-9.4C132.6,171.7,130.8,171,129,170.1z"/>
		<path class="st3" d="M-89.9,183.8c1.5,1.2,2.8,2.9,2.7,4.6c-0.4,9.2,2.4,18.4,0.6,27.6c-2.2,2.2-5,3.2-8.1,3.6
			c-2.4-0.3-4.8-0.5-7.3,0.2c-6.9-0.7-12.9,2.1-18.8,5.2c-5.2,2.8-10.3,5.9-16.4,6.6c-1.8-0.1-3.6-0.7-5.3,0.4
			c-1.1,0.5-2.2,0.9-3.4,0.7c-2.1-0.6-4.2-0.4-6.3,0.1c-5.4-0.3-10.4-1.6-14.3-5.7c-4.4-8.4-2.6-14,5.8-17.6
			c7.3-3.1,14.8-5.8,22.2-8.9c7.5-3.1,13.4-8,16-16c1.1-3.4,3.5-4.1,6.6-3.7c6,0.8,12.4,0.8,15.4,7.6c0.9,2,2.4,1.8,4.2,1.3
			C-92.8,189-91.4,186.4-89.9,183.8z"/>
		<path class="st3" d="M-90.8,269.1c-1.7-5.5,0.9-10,4.2-13.9c4.9-5.9,11.8-9.6,16.9-15.3c4.8-5.4,8.8-11.1,10.2-18.4
			c0.6-3.3,1-7.1,5.7-7.6c6.3-2,15.1,1.2,18.1,6.9c1.1,2.1,1.9,1.8,3.3,0.5c1.1-1,1.3-3.2,3.5-3c1.4,1.7,2.4,3.5,2.1,5.8
			c-0.9,7.1-1.9,14.2-3.8,21.1c-3.4,3.3-7.1,6.4-10,10.2c-1,1.3-2.6,2.5-2.1,4.6c-1.3,3-2.6,6-4,9c-10.5,11.2-21.5,13.6-34.7,7.9
			C-85.4,275.2-87.6,271.5-90.8,269.1z"/>
		<path class="st9" d="M-89.9,183.8c-0.6,4.6-3.7,7.6-8.2,8c-1.7,0.2-3.4-0.4-3.4-2c0.1-4.9-3.6-5.2-6.8-6.3
			c-2.5-0.9-4.9-1.8-7.4-2.6c2.4-8.1,3-16.5,4.7-24.7c2.5,0.5,4.5,2,6.7,3.1c4.7,2.2,9.5,3.7,14.8,3.5c2-0.1,4-0.1,5.6,1.3
			C-86.5,170.5-89.4,176.8-89.9,183.8z"/>
		<path class="st9" d="M-29,218.2c-0.9,1.9-1.7,3.9-3.6,5.2c-1.1,0.8-2.2,1.9-3.5,1.3c-1.3-0.6-0.5-2.1-0.6-3.1
			c-0.1-2.6-1.5-3.9-3.7-4.7c-4.4-1.6-8.9-2.7-13.5-3c1.3-7.2,2.7-14.5,4-21.7c1.2-0.7,2.2-0.1,3.2,0.4c6.3,3.1,12.9,5.2,20,5.2
			c1.3,0,2.6,0.3,3.7,1.3C-25.3,205.3-28.8,211.3-29,218.2z"/>
		<path class="st22" d="M-78,166.2c3.8,2.2,8.1,3.6,11.2,6.9c-1.3,7.9-2.7,15.7-3.9,23.6c-0.5,3.4-1.8,6.6-5.8,6
			c-4.2-0.6-5.4-3.6-4.8-7.8C-80.1,185.3-79.1,175.7-78,166.2z"/>
		<path class="st8" d="M-83.9,164.1c-8.6,1-16.6-0.8-24.1-4.9c-1.2-0.7-2.9-1-3-2.9c0.5-2.7,0.9-5.4,1.4-8.1
			c8.9,4.5,17.6,9.4,25.9,15C-83.8,163.4-83.9,163.7-83.9,164.1z"/>
		<path class="st8" d="M-23,199c-9.7,0.7-18.7-1.6-26.9-6.9c0.4-2.7,0.8-5.4,1.2-8.1c7.1,1.6,12.4,6.7,18.8,9.7
			c2.5,1.2,4.7,2.9,7.1,4.4C-22.8,198.5-22.9,198.8-23,199z"/>
		<path class="st23" d="M-94.8,218.9c2.8-0.9,5.5-1.9,8.3-2.8c-1.5,4.3-5.4,5.2-8.9,4.8c-11.9-1.2-21.9,3.3-32,8.8
			c-9.5,5.2-20,5.6-30.5,3.5c-3.6-0.7-7-2.2-8.5-6.1c4.6,2.7,9.5,4.2,14.8,4.9c1.9-0.7,3.9-0.6,5.8,0c1.1-0.3,2.1-0.6,3.2-1
			c1.6-0.6,3.2-0.6,4.8,0c8.7-1.7,16.1-6.5,23.8-10.3c4-2,8-2.3,12.3-1.7C-99.4,218.3-97.1,218.3-94.8,218.9z"/>
		<path class="st24" d="M-90.8,269.1c0.3-1.3,0.5-1.7,1.5-0.3c7,9.6,21,12.7,32.5,7.1c2.5-1.2,4.9-2.6,6.7-4.9c0.7-0.9,1.2-3,3.3-2
			c-4.3,9.8-16.1,14.7-28.8,11.5C-82.1,278.8-88.2,276.2-90.8,269.1z"/>
		<path class="st25" d="M-273.4,233c3.3,0,6.6-0.2,9.9,0.1c4.2,0.4,4.9-1.4,4.9-5.1c-0.1-15.4,0.1-30.8,0.1-46.1
			c1.1,8.1,0.3,16.2,0.5,24.3c0.2,8.5,0,16.9,0.1,25.4c0.1,4.2-2.2,6-6,6.5C-269.5,238.8-272.1,237.4-273.4,233z"/>
		<path class="st26" d="M189.7,298.1c5-0.1,10-0.1,15-0.2C200.9,303.5,193.8,303.6,189.7,298.1z"/>
		<path class="st27" d="M14.4,400.8c4.9,0,9.8,0,14.7,0C25.5,406.5,18.1,406.5,14.4,400.8z"/>
		<path class="st28" d="M-42.8,260c-0.7-0.4-0.9-1-0.7-1.7c1.5-4.3,9.2-12.2,12.7-13.2c-0.6,2.8-2.4,4.8-4.5,6.4
			C-38.4,253.8-40.8,256.7-42.8,260z"/>
		<path class="st3" d="M-175.5-371.2c11.7-6.6,23.4-13.2,35.1-19.9c6.3-3.6,8.8-2,9.7,5c1,7.8-1.9,12-8.8,15.9
			c-51,29-101.7,58.4-152.5,87.8c-32.9,19-65.9,38-98.8,57c-4.6,2.7-4.5,2.6-4.7-2.7c-0.5-10.9,3.9-18.9,13.9-23.7
			c1.5-0.7,2.8-1.8,4.2-2.7c3.8-4.2,9-6.1,13.7-8.8c32.2-18.6,64.3-37.2,96.5-55.8c28.2-16.3,56.4-32.5,84.5-48.8
			C-180.4-369.2-178.2-370.7-175.5-371.2z"/>
		<path class="st10" d="M-175.5-371.2c-16.9,9.9-33.8,19.9-50.7,29.7c-39.8,23-79.7,46-119.6,69c-10.5,6.1-21.1,12-31.6,18
			c-0.4-0.3-0.7-0.6-1.1-1c7.2-5.4,15.2-9.3,22.9-13.8c24.8-14.4,49.7-28.7,74.5-43c25-14.4,50-28.9,75-43.3
			c9.8-5.6,19.6-11.1,29.4-16.7C-176.2-371.9-175.9-371.5-175.5-371.2z"/>
		<path class="st29" d="M-147.7-243.5c-0.1,2.1-1.6,2.7-2.8,3.4c-24,13.9-48.1,27.7-72.1,41.6c-5.9,3.4-11.7,6.9-17.7,10.2
			c-1.7,0.9-3.9,3.4-5.5,0.5c-1.3-2.5,1.7-3.2,3.3-4.1c17.5-10.2,35.1-20.4,52.6-30.5c12.4-7.1,24.7-14.3,37.1-21.4
			C-151.1-244.6-149.2-246.5-147.7-243.5z"/>
		<path class="st29" d="M-243.4-122.8c-1.6,0.3-2.4-0.3-2.7-1.4c-0.4-1.4,0.5-2.2,1.6-2.8c3.7-2.2,7.4-4.4,11.2-6.6
			c25.9-15,51.8-30,77.8-44.8c2.1-1.2,5.3-4.9,7.2-1.7c1.9,3.2-2.9,4.1-5.1,5.3c-29,16.9-58.2,33.6-87.3,50.4
			C-241.7-123.8-242.7-123.2-243.4-122.8z"/>
		<path class="st29" d="M-147.8-210.8c-0.2,2.1-1.9,2.7-3.3,3.5c-19.4,11.2-38.9,22.5-58.3,33.7c-10.5,6.1-21,12.2-31.5,18.2
			c-1.4,0.8-3.3,2.9-4.7,0.7c-1.6-2.4,1-3.4,2.6-4.4c30.1-17.3,60.2-34.6,90.3-51.9C-151.2-211.8-149.3-213.7-147.8-210.8z"/>
		<path class="st29" d="M-147.7-343.2c-0.7,2.1-2.3,2.7-3.8,3.5c-18,10.4-35.9,20.9-53.9,31.2c-11.7,6.7-23.3,13.5-35,20.1
			c-1.6,0.9-3.8,3.7-5.4,0.7c-1.3-2.5,1.8-3.1,3.3-4c24-14,48-27.8,72.1-41.7c6.2-3.6,12.4-7.2,18.6-10.7c1-0.5,2-1.4,3.2-0.5
			C-148.2-344.2-148-343.6-147.7-343.2z"/>
		<path class="st30" d="M-168.7-262.4c-23.3,13.4-46.6,26.9-70,40.2c-2.1,1.2-5.1,4.9-7,1.4c-1.6-2.9,2.9-3.8,4.9-4.9
			c24-13.9,48-27.8,72.1-41.6C-167.2-265.7-167.2-264-168.7-262.4z"/>
		<path class="st29" d="M-168.8-296.5c-22.2,12.7-44.4,25.5-66.5,38.2c-2.2,1.2-4.3,2.5-6.5,3.7c-1.3,0.7-2.7,1.9-3.9,0.2
			c-1.5-2.1,0.5-3.1,1.8-3.8c7.6-4.5,15.2-8.8,22.8-13.2c17.4-10,34.9-19.9,52.3-29.9C-167.3-299.7-167.3-298.1-168.8-296.5z"/>
		<path class="st29" d="M-333-151.4c-1.3-0.1-2.2-0.2-2.4-1.2c-0.4-1.6,0.4-2.4,1.7-3.2c5.9-3.4,11.7-6.9,17.6-10.2
			c15.9-9.2,31.9-18.4,47.9-27.5c0.6-0.3,1.2-0.7,1.8-0.9c1.5-0.7,3.2-1.9,4.4,0c1.2,2.1-0.8,2.9-2.1,3.7
			c-5.9,3.4-11.8,6.8-17.7,10.2c-15.8,9.1-31.6,18.3-47.4,27.4C-330.6-152.4-332-151.8-333-151.4z"/>
		<path class="st30" d="M-261.6-260.9c-0.4,2.1-1.9,2.6-3.2,3.3c-22,12.7-44.1,25.4-66.1,38.1c-1.4,0.8-3.2,2.1-4.3,0.1
			c-1.2-2.2,0.9-3.1,2.5-4.1c14.4-8.3,28.8-16.6,43.2-25c7.6-4.4,15.3-8.8,22.9-13.2c1.3-0.7,2.6-1.7,4.1-0.7
			C-262-262-261.8-261.3-261.6-260.9z"/>
		<path class="st29" d="M-305.5-119.5c-0.3,2.3-2.3,2.8-3.8,3.7c-17.7,10.2-35.4,20.4-53.1,30.6c-4,2.3-8.1,4.7-12.1,7
			c-1.4,0.8-3.2,2.3-4.4,0.4c-1.3-2.1,0.8-3.2,2.3-4.1c9.6-5.6,19.2-11.2,28.8-16.8c12.5-7.2,25-14.4,37.6-21.6
			C-308.4-121.3-306.5-122.6-305.5-119.5z"/>
		<path class="st29" d="M-305.5-252.3c-0.2,2-1.4,2.5-2.6,3.2c-22.1,12.8-44.3,25.5-66.4,38.3c-1.4,0.8-3.2,2.3-4.4,0.4
			c-1.3-2.1,0.9-3.2,2.5-4.1c22.1-12.8,44.2-25.6,66.3-38.4C-308.2-254.1-306.5-254.7-305.5-252.3z"/>
		<path class="st30" d="M-305.5-184.9c-0.4,1.9-1.6,2.5-2.8,3.1c-22,12.7-44.1,25.4-66.2,38.1c-1.4,0.8-3.3,2.2-4.5,0.4
			c-1.5-2.2,0.8-3.2,2.3-4.1c21.9-12.7,43.8-25.3,65.7-38c1.4-0.8,2.9-1.9,4.6-0.9C-305.8-186-305.7-185.2-305.5-184.9z"/>
		<path class="st31" d="M-168.8-296.5c0-1.6,0-3.2,0-4.8c0-4,0-8,0-11.9c-1.3-1.4-0.9-2.9,0-4.3c0.3-1.6-0.2-3.4,1-4.8
			c1,0.3,2,0.7,3,1c0,24.9,0,49.7-0.1,74.6c0,1.9,0.7,4-1.1,5.6c-2.4-0.6-2.6-2.6-2.9-4.5c-1.4-1.7-1-3.3,0.1-4.9
			c0-3.9,0-7.9,0-11.8c0-1.6,0-3.3,0-4.9c0-4.3,0-8.6,0.1-13c-1.3-1.5-0.9-2.9,0-4.3C-168.7-288.6-168.7-292.5-168.8-296.5z"/>
		<path class="st32" d="M-305.5-88.3c-0.1,1.7-1.4,2.3-2.5,3c-12.2,7.1-24.5,14.2-36.7,21.2c-1.4,0.8-3.1,2.2-4.3,0.2
			c-1.2-1.9,0.4-3,2-3.9c12.5-7.2,25-14.5,37.6-21.7C-307.8-90.5-306.1-91-305.5-88.3z"/>
		<path class="st33" d="M-147.8-227.2c0,1.9-1.1,2.7-2.3,3.4c-9.1,5.3-18.1,10.5-27.2,15.7c-1.3,0.8-3,1.6-4,0.1
			c-1.2-1.8,0.2-3,1.8-3.9c9.1-5.2,18.2-10.4,27.3-15.6C-150.6-228.5-148.9-229.3-147.8-227.2z"/>
		<path class="st33" d="M-179.2-175.5c-1.1,0-1.9-0.2-2.3-1.1c-0.4-1-0.2-2,0.7-2.7c1.6-1.1,3.3-2.1,5.1-3.1
			c7.9-4.5,15.8-9,23.7-13.5c1.2-0.7,2.8-1.9,3.9-0.1c1.1,1.7-0.4,2.7-1.7,3.5c-9.3,5.5-18.6,10.9-27.8,16.3
			C-178.2-175.9-178.8-175.7-179.2-175.5z"/>
		<path class="st34" d="M-291.4-258.7c-1.2,0.2-1.9-0.2-2.4-1c-0.7-1-0.2-2,0.6-2.6c1.9-1.3,3.9-2.5,5.9-3.7c6.9-4,13.8-8,20.7-12
			c1.6-0.9,3.5-2.2,4.7,0.1c1.1,2.1-1.2,2.8-2.5,3.6c-8.5,5-16.9,9.9-25.4,14.8C-290.5-259.2-291.1-258.9-291.4-258.7z"/>
		<path class="st35" d="M-261.7-113.5c-0.2,1.6-1.4,2.2-2.6,2.9c-8.6,5-17.2,10-25.7,15c-1.4,0.8-2.8,1.4-3.8-0.3
			c-1-1.8,0.5-2.8,1.7-3.5c8.8-5.2,17.7-10.3,26.6-15.4C-263.7-115.9-262.3-115.6-261.7-113.5z"/>
		<path class="st35" d="M-261.6-210.3c-0.2,1.8-1.3,2.5-2.5,3.1c-8.5,4.9-16.9,9.8-25.4,14.7c-1.4,0.8-3.1,2-4.3-0.1
			c-1.2-2.1,0.8-2.9,2.2-3.7c8.4-4.9,16.9-9.8,25.4-14.7C-264.5-212.1-262.6-213-261.6-210.3z"/>
		<path class="st35" d="M-261.7-177.4c0,1.7-1.1,2.4-2.3,3.1c-8.6,5-17.2,10-25.8,14.9c-1.3,0.8-2.8,1.6-3.9-0.1
			c-1.4-2.1,0.5-3,1.9-3.8c8.4-4.9,16.9-9.8,25.4-14.7C-264.8-179-262.9-180.4-261.7-177.4z"/>
		<path class="st35" d="M-291.7-225.7c-1,0-1.7-0.4-2.2-1.2c-0.6-1.1-0.1-2,0.7-2.6c2-1.4,4.2-2.7,6.3-3.9c7-4.1,14-8.1,21-12.2
			c1.4-0.8,2.8-1.3,3.8,0.4c0.9,1.6-0.4,2.5-1.5,3.2c-9,5.3-18,10.5-27,15.7C-290.9-226-291.4-225.8-291.7-225.7z"/>
		<path class="st33" d="M-261.7-144.8c-0.2,1.9-1.5,2.5-2.6,3.1c-8.2,4.8-16.3,9.5-24.5,14.2c-1.6,0.9-3.6,2.2-4.9,0.3
			c-1.5-2.2,0.9-3.1,2.4-3.9c8.3-4.8,16.6-9.7,25-14.5C-264.6-146.6-262.7-147.4-261.7-144.8z"/>
		<path class="st33" d="M-244.5-269.5c-1,0.1-1.7-0.3-2.1-1.2c-0.4-1.3,0-2.3,1.1-3c2-1.2,4-2.3,6-3.5c6.9-4,13.7-8,20.6-12
			c1.3-0.7,2.8-1.6,3.9,0.2c0.9,1.4,0,2.6-1.2,3.3c-9,5.2-18.1,10.4-27.1,15.7C-243.7-269.8-244.1-269.7-244.5-269.5z"/>
		<path class="st33" d="M-214.6-255.3c0,1.6-0.9,2.3-1.9,2.9c-8.6,5-17.2,10-25.8,14.9c-1.2,0.7-2.8,1.9-3.9,0.2
			c-1.2-1.8,0.1-3.1,1.7-4c8.6-5,17.2-10,25.8-14.9C-217.1-257.2-215.4-257.9-214.6-255.3z"/>
		<path class="st33" d="M-214.6-156.4c-0.3,1.8-1.6,2.3-2.7,3c-8.4,4.9-16.9,9.8-25.4,14.7c-1.3,0.7-2.7,1.9-3.8-0.1
			c-0.9-1.7,0.2-2.8,1.6-3.6c8.7-5,17.5-10.1,26.2-15.2C-216.7-158.7-215.1-158.8-214.6-156.4z"/>
		<path class="st33" d="M-244.5-169.6c-1.2,0.2-1.9-0.4-2.2-1.5c-0.5-1.5,0.7-2,1.7-2.6c5.4-3.2,10.9-6.4,16.3-9.5
			c3.4-2,6.9-4,10.4-5.9c1.2-0.6,2.7-1,3.5,0.5c0.7,1.2,0,2.3-1.1,3c-9.2,5.3-18.4,10.5-27.6,15.8
			C-243.9-169.8-244.2-169.7-244.5-169.6z"/>
		<path class="st33" d="M-214.6-221.2c-0.1,1.9-1.1,2.5-2.1,3.1c-8.6,4.9-17.3,9.8-26,14.7c-1.3,0.7-2.8,1.7-3.9-0.2
			c-1.1-2,0.6-2.6,1.8-3.4c8.5-4.9,16.9-9.8,25.4-14.7C-217.6-222.6-215.8-223.4-214.6-221.2z"/>
		<path class="st33" d="M-168.7-250.6c0,1.6-0.1,3.3-0.1,4.9c-8.2,4.7-16.4,9.4-24.7,13.9c-1.5,0.8-3.5,3.3-5,0.5
			c-1.4-2.5,1.3-3.3,3-4.3C-186.5-240.4-178-246.2-168.7-250.6z"/>
		<path class="st33" d="M-168.7-317.5c0,1.4,0,2.8,0,4.3c-8.6,5-17.2,10-25.8,14.9c-1.2,0.7-2.8,1.9-3.9,0.1c-1-1.6,0.1-2.8,1.6-3.6
			C-187.4-306.9-178.5-313-168.7-317.5z"/>
		<path class="st34" d="M-305.5-219.4c0.1,1.6-0.8,2.3-1.8,2.9c-5.5,3.1-10.9,6.2-16.4,9.3c-1.3,0.8-2.9,1.5-3.8-0.3
			c-0.7-1.4,0.4-2.5,1.6-3.2c5.6-3.3,11.1-6.6,16.7-9.8C-307.7-221.4-306.1-221.6-305.5-219.4z"/>
		<path class="st36" d="M-185.7-173c-0.3,1.6-1.5,2.3-2.6,3c-5.1,3-10.3,6-15.4,8.9c-1.5,0.8-3.3,1.6-4.3-0.2
			c-0.9-1.6,0.7-2.6,2-3.4c5.3-3.1,10.5-6.2,15.8-9.2C-188.6-174.9-186.6-176.1-185.7-173z"/>
		<path class="st34" d="M-308.6-153.6c1.7,0,2.5,0.1,2.9,1c0.4,1.1,0.1,2.1-0.8,2.6c-6.2,3.6-12.3,7.1-18.6,10.7
			c-1,0.6-2,0.1-2.7-0.7c-0.6-0.8-0.3-1.8,0.3-2.3C-321.4-146.9-314.5-150.1-308.6-153.6z"/>
		<path class="st36" d="M-206.5-258.7c-1.7-0.6-2.8-1.9-1.2-3.2c5.9-4.6,12.5-8,19.1-11.4c0.9-0.5,2,0,2.5,1
			c0.4,0.9,0.1,1.7-0.6,2.2c-6.2,3.7-12.5,7.4-18.8,11.1C-205.7-258.8-206.1-258.8-206.5-258.7z"/>
		<path class="st36" d="M-185.9-204.6c0,1.5-1.1,2.1-2.1,2.7c-5.4,3.1-10.9,6.2-16.4,9.3c-1.3,0.8-2.9,1.5-3.8-0.3
			c-0.8-1.5,0.6-2.4,1.7-3.1c5.4-3.3,10.8-6.5,16.2-9.6C-188.4-206.7-186.8-207-185.9-204.6z"/>
		<path class="st36" d="M-168.6-284.6c0,1.4,0,2.9,0,4.3c-3,1.7-6,3.5-9,5.2c-1.3,0.8-2.8,1.5-3.8-0.4c-0.7-1.5,0.2-2.5,1.5-3.2
			C-176.1-280.5-172.8-283.3-168.6-284.6z"/>
		<path class="st9" d="M121.8-56.5c0.8,7.1,1.3,14.2,2.3,21.3c0.9,6.1-1.4,10.7-6.2,14.2c-3,2.1-5.9,4.3-8.9,6.4
			c-1.2,2.1-3.2,3.3-5.2,4.4c-8.9,4.5-17.7,9-26.8,12.9c-1.9,0.8-3.8,1-5.8,1.2C63,8.6,53.4,10.9,47.8,19.3
			c-0.5,1.3-1.4,2.3-2.6,2.9c-9.4,4.7-18.2,10.6-27.7,15c-5,0.6-9.8,0.6-14.6-1.1C-7.2,32.4-8.4,27.8-1,20c3.3-3.2,6.6-6.4,9.6-7.9
			c-1.2,0.9-3.5,0.5-5.9-0.4c-3-3.8-2.9-4.5,1.5-6c2.2-0.8,4.4-1.4,6.5-2.2c2.2-0.7,4.3-1.3,6.4-2.1c2.2-0.8,4.4-1.6,6.7-1.8
			c6.6-0.7,12-3.6,16.7-8c1.3-1.3,2.8-2.4,4.8-2.3C59.1-21.6,73.6-31.6,88-41.7c4.1-2.5,5.9-2.5,10.1-0.5c-1.9-1.2-4.1-1.5-6.3-1.4
			c-1.9,0.1-3.7,0.2-4.6-2c-0.4-2.6-0.7-5.3-1.1-7.9c1.5-1.4,3.1-0.5,4.7-0.1c4.3,1.1,8.8,1.8,13.2,2.2c4.9,0.5,9.5-0.5,13.6-3.6
			C118.8-55.9,119.7-57.9,121.8-56.5z"/>
		<path class="st6" d="M-5.8,118.1c-4.2-3.3-9.3-5-13.7-7.8c0.2-1.5,1.4-1.9,2.3-2.5C1.7,94.7,20.7,81.6,39.6,68.3
			c2.6-1.9,4.6-2.2,7.6-0.7C63.4,75.4,79.8,83,96.6,90.9c-1.5,2.3-3.5,3.2-5.5,4.3c-0.8,2.4-2.8,3.7-4.7,5
			C70,111.7,53.5,123.1,37,134.5c-3.2,2.2-6,1.3-8.9-0.1c-8.4-4.3-17.2-7.9-25.6-12.2c-2.4-1.2-4.7-2.4-7.3-3.2
			C-5.2,118.9-5.5,118.5-5.8,118.1z"/>
		<path class="st37" d="M18.1,36.2c9.4-6.4,19.9-11,29.6-16.9c2.1,1.3,4.2,2.7,6.3,3.9c4.1,2.5,4.6,4.9,1.2,8.4
			c-1.2,1.3-2.8,2.3-4.4,3.2c-18.9,11-37.8,22-56.7,32.9c-1.2,0.7-2.6,2.5-4.3,0.7c1.3-5.1-0.3-10.1-0.7-15.2
			c0.5-0.6,0.8-1.5,1.6-1.9C-0.1,46.3,8.2,39.8,18.1,36.2z"/>
		<path class="st8" d="M-5.8,118.1c0.4,0,0.7,0,1.1,0c11.4,5.6,22.6,11.7,33.5,18.4c3.7,2.3,6.8,2.2,10.6,0
			c13.7-8.1,27.5-16,41.4-23.9c1.6-0.9,3.2-2.5,5.5-1.5c4.2,0.1,6.8,3.4,10.5,5.1c-1.5,1.3-2.7,2.3-3.9,3.3
			c-2.1,2.2-3.9,0.8-5.7-0.5c-0.3,0-0.5-0.7-1-0.2c0.3,0.1,0.6,0.2,0.8,0.4c1.4,0.7,2,1.7,1.3,3.2c-2.3,1.9-4.7,3.4-7.8,3.5
			c-1.3-0.2-2-1.5-3.2-2.1c0.8,1.3,2.8,1.9,1.8,3.9c-2.3,1.6-4.4,3.8-7.6,3.3c-1.3-0.3-1.8-1.7-3.2-2c1.3,1,2.6,1.8,2.1,3.7
			c-2,2.3-4.5,3.7-7.7,3.4c-0.7-0.2-1.3-0.6-1.8-1.1c-0.6-0.5-1.2-1-2-1.2c-0.6-0.3-0.7,0.5-0.3,0.3c0.6-0.3,1.4,0.3,2,0.8
			c0.7,0.7,1.1,1.5,0.9,2.5c-1.8,2.3-4.4,3.5-7,4.5c-0.5,0-0.9-0.1-1.3-0.3c-0.6-0.7-1.2-1.5-2.1-2c0.5,0.6,1.2,1,1.4,1.7
			c0.2,0.5,0.1,0.9-0.1,1.3c-1.6,2.3-3.9,3.4-6.5,4c-0.5,0-0.9-0.1-1.3-0.3c-1-0.6-1.6-1.7-3-2.1c1,1.1,2.5,1.7,2.1,3.4
			c-1.8,2.6-4.2,4-7.3,4.3c-12.3-6-24-13.2-35.8-20.1c-3.2-1.9-7.3-2.5-9-6.5c-4.2-2.6-4.2-3.4-0.2-5.6
			C-7.9,119.1-6.8,118.6-5.8,118.1z"/>
		<path class="st38" d="M86.2,111.2c-15.8,9-31.7,17.9-47.4,27.1c-3.5,2-6,2.1-9.4,0c-11.3-6.9-22.7-13.5-34.1-20.2
			c8.2,2.2,15.9,6.1,22.9,10.5c10.6,6.6,18.7,6,28.5-1.9c14.2-11.3,29.6-21.1,44.4-31.5c2.3,3.4,6.5,4,9.7,6.9
			C95.8,105.2,91,108.2,86.2,111.2z"/>
		<path class="st2" d="M71.1,4C84-1.7,96.8-7.5,109-14.6c-0.3,4,0.7,8-1,11.9c-3.7,6.9-15.5,13.1-23.1,12.1
			C79.3,10.2,75.9,5.4,71.1,4z"/>
		<path class="st8" d="M84.9,9.4c8.7-2.2,16.9-5.2,23.1-12.1c2.1,4.6,0.4,9.5,1.1,14.2c-1,2.9-3.5,3.9-6.2,4.6
			c-1.8,0.4-2.6,2.1-4.1,3.1c-4.8-2.6-9.5-5.1-14.3-7.7C82.7,10.5,84.8,10.1,84.9,9.4z"/>
		<path class="st39" d="M-8.6,125.3c14.9,8.6,29.8,17.2,44.7,25.8c1.2,1.5,1.2,3-0.3,4.3c-1.5,0.7-2.8,0.1-4.1-0.7
			c-12.5-7.3-25.1-14.6-37.6-21.9c-1.7-1-4.3-1.7-3.1-4.7C-8.9,127.2-8.7,126.3-8.6,125.3z"/>
		<path class="st8" d="M-9,128.2c0.2,1.4,1,2.3,2.3,3c13.9,8,27.8,16,41.7,24c2.1,0.7,2.9-1.5,4.5-2c1.6-0.5,3-2.1,4.9-0.9
			c0.6,0.9,0.6,1.9,0.1,2.8c-0.9,1.1-2.1,1.3-3.4,1.1c-5.6,5.3-10,0-13.9-2.4C15.4,146.3,3,139.7-9.1,132.6
			C-12.2,130.8-12.2,129.6-9,128.2z"/>
		<path class="st40" d="M69.9,131.9c-0.3-1-0.9-1.7-1.9-2.2c-1-0.5-2,1.8-2.8,0c-0.2-0.4,0.4-1.2,0.8-1.6c1.1-1.3,2.4-0.8,3.5,0
			c0.6,0.5,1.1,1.2,1.6,1.8c2,1.1,3.5,2.5,3,5.1c-0.1,0.8-0.6,1.5-1.1,2.2c-0.6,2.7-0.6,6.1-5,3.9c-0.7-1.8,2.1-2.6,1.2-4.5
			C68.9,135,69.2,133.4,69.9,131.9z"/>
		<path class="st41" d="M78.9,126.9c-0.3-1.2-1-2-2.1-2.4c-0.8-0.3-1.9,1.9-2.6-0.2c-0.1-0.4,0.4-1.2,0.9-1.6c1-0.8,2.1-0.8,3,0.1
			c0.7,0.6,1.4,1.3,2.1,2c1.9,1.2,3.5,2.6,3,5.2c-0.1,0.8-0.6,1.5-1.1,2.2c-0.3,1-0.1,2.2-1.1,3c-0.9,0.3-1.4-0.3-1.8-0.9
			c-0.5-1.2-0.8-2.4-1.1-3.6C77.8,129.2,78.2,128,78.9,126.9z"/>
		<path class="st42" d="M87.9,121.8c-0.6-0.9-1.2-1.8-1.8-2.6c-0.2-1.1,0.2-1.6,1.3-1.1c1.6,1.2,3.2,2.6,5.4,1.5
			c-0.1,1.3-0.9,2.5,0.1,3.7c0.6,2.1-2.3,2.3-2.2,4.1c-0.3,0.9-0.5,1.8-0.8,2.7c-0.9,0.3-1.4-0.3-1.8-1c-0.5-1.2-0.8-2.4-1.1-3.7
			C86.8,124.1,87.2,122.9,87.9,121.8z"/>
		<path class="st43" d="M61.1,137.1c-0.3-0.7-0.6-1.3-1-2c-0.2-0.9,0-1.5,1.1-1c0.3,0.3,0.6,0.6,1,0.9c2.3,0.9,3.4,2.5,3.2,5
			c-0.1,1.1-0.6,2.1-1.1,3.1c-0.6,2.7-1.2,5.5-5,3.1c0.3-1.6,2-2.7,1.6-4.5C60.7,140.1,59.9,138.5,61.1,137.1z"/>
		<path class="st44" d="M53.2,140.7c0.3,0.1,0.6,0.2,0.8,0.4c1.7,0.8,2.1,2.3,2.1,4c-0.1,1.1-0.5,2.1-1.1,3c-0.4,1,0,2.3-1.2,3
			c-0.9,0.3-1.4-0.3-1.7-1c-0.4-1-0.4-2-0.5-3c0-1.7-0.9-3.4,0.3-5l0,0C52.4,141.6,52.5,140.9,53.2,140.7z"/>
		<path class="st8" d="M55.2,148.1c0-1,0-1.9,0-2.9c1.9-2,3.4-4.7,6.9-3c0.6,2.5-1.7,2.8-2.9,3.9C57.8,146.8,56.5,147.5,55.2,148.1z
			"/>
		<path class="st8" d="M53,147.3c0,0.9-0.1,1.7-0.1,2.6c-0.6,1.2-1.5,1.6-2.8,1.3c-1.4,0.5-2.2,2-3.9,1.9c-1-0.8-1-1.8-0.6-2.9
			C47.8,148.5,49.6,145.9,53,147.3z"/>
		<path class="st45" d="M46.2,150.4c0,0.9,0,1.8,0,2.7c-0.3,1,0,2.3-1.2,3c-1.1,0.2-1.4-0.2-1.1-1.2c0-0.9,0-1.8,0.1-2.7
			c-1.5-1.5-0.9-3.1-0.4-4.8c0.1-0.9,0.4-1.6,1.6-1.4l0,0C47,147.1,47.2,148.6,46.2,150.4z"/>
		<path class="st8" d="M64.2,143.1c0-1-0.1-1.9-0.1-2.9c1.7-2.4,3.5-4.5,6.9-2.8c0.3,2.2-2.1,2.3-2.8,3.7
			C66.8,141.8,65.5,142.4,64.2,143.1z"/>
		<path class="st8" d="M79.1,131.5c1.2,0.5,0.6,1.6,0.8,2.5c-0.5,1.3-1.2,2.2-2.7,1.3c-1.5,0.3-2.4,2.1-4.1,1.9c0-0.7,0-1.3,0-2
			C74.6,133.1,76.2,131.2,79.1,131.5z"/>
		<path class="st8" d="M88.1,126.3c1.3,0.5,0.5,1.7,0.8,2.5c-0.5,1.3-1.5,1.8-2.9,1.4c-1.4,0.5-2.2,2.1-3.9,2c0-0.7-0.1-1.4-0.1-2.1
			C83.4,127.9,85.1,126.1,88.1,126.3z"/>
		<path class="st8" d="M90.7,127.4c-2.1-2.9,1.8-2.6,2.2-4.1c0.9-1.1,1.8-0.3,2.4,0.3c0.7,0.8-0.1,1.4-0.8,1.8
			C93.3,126,92,126.7,90.7,127.4z"/>
		<path class="st46" d="M77.2,135.3c0.9-0.4,1.8-0.9,2.7-1.3c0.4,0.4,0.7,0.8,1.1,1.2C79.8,136.6,78.6,138.5,77.2,135.3z"/>
		<path class="st47" d="M86,130.2c1-0.5,1.9-0.9,2.9-1.4c0.4,0.4,0.7,0.9,1.1,1.3C88.7,131.9,87.4,132.5,86,130.2z"/>
		<path class="st48" d="M50.1,151.2c0.9-0.4,1.9-0.9,2.8-1.3c0.4,0.4,0.7,0.8,1.1,1.2C52.8,152.6,51.5,153,50.1,151.2z"/>
		<path class="st49" d="M44,154.9c0.4,0.4,0.7,0.8,1.1,1.2c-1.3,1.7-2.6,1.8-3.9,0.1C42.1,155.8,43,155.3,44,154.9z"/>
		<path class="st12" d="M121.8-56.5c-9.2,9.2-20,6.7-30.9,4.2c-1.6-0.4-3.2-0.8-4.8-1.2c-2.9-0.5-4.6-2.1-5.1-5.2
			c-3.4-18.2-6.7-36.3-8.7-54.7c-0.9-8.3-1.5-16.9,3-24.8c1.3-2.4,3.5-4,4.8-6.3c17.6,3.5,27.9,14.3,32.5,31.5
			c4.3,16.1,8.1,32.3,9.5,49C122.2-61.5,121.9-59,121.8-56.5z"/>
		<path class="st3" d="M45.3-10.7c-7.5,8.2-17,11.9-27.8,12.9C10,0.3,4.2-4.6-2.2-8.2C-15.5-15.9-28.7-23.8-42-31.5
			c-1.7-1-3.7-1.7-4-4c1-1.9,2.6-3.2,4.4-3.7c8.9-2.4,17.6-5.4,26.8-6.7C-8-44.1-1.9-40.8,3.1-35.8C15.9-28.4,28.6-21,41.3-13.6
			C42.7-12.8,44.4-12.3,45.3-10.7z"/>
		<path class="st9" d="M27.3-152.5c3.1-1.8,6.4-0.9,9.7-0.9c7.4-0.1,14.8,0,22.2,0c-4.1,8.9-9.9,15.3-20.7,15
			C29.5-138.9,25.6-143.8,27.3-152.5z"/>
		<path class="st0" d="M3.1-35.8c-6-3.4-11.9-6.8-17.9-10.2c4.1-1.9,8.6-2.5,12.8-3.9c4.5-1.5,5.7,0,5.3,4.2c-0.1,1,0.2,2,0.2,3
			C3.4-40.4,3.3-38.1,3.1-35.8z"/>
		<path class="st50" d="M30.1-154.5c-0.7,0-1.4,0-2.1,0c0.1-1.7,0.1-3.4-0.9-4.9c6.9-1.1,13-4.3,19.2-7.5
			C42.1-161.2,35.7-158.4,30.1-154.5z"/>
		<path class="st51" d="M87.2-45.6c3.8,1.7,8.5,0.3,11.8,3.7c-3.8-1.6-7.4-0.3-11.1,0.2C87.6-43,86.9-44.2,87.2-45.6z"/>
		<path class="st14" d="M-46-35.5C-26.4-24-6.7-12.4,12.9-0.8c1.6,0.9,3,2,4.5,2.9c-1.8,1.5-4,2-6.3,2.2C5.5,3.1,1.1-0.5-3.6-3.3
			c-4.6-2.8-8.8-5.3-13.9-1.4c-0.6,0.5-1.6,0.5-2.3,0c-0.9-7.1-7.2-8.8-12-11.9c-6.9-4.5-13.9-8.6-20.9-12.9
			C-49.3-30.2-48.5-33.8-46-35.5z"/>
		<path class="st52" d="M18.1,36.2c-9.4,6-19.1,11.7-28.9,17c-2-13.3-4-26.6-6-39.9c-0.2-4.1,2.4-2.1,3.5-1.3
			c4.4,2.8,9.2,5.2,13.4,8.3c-7.2,9-6.3,11.5,4.8,15.1C9.3,36.8,13.7,36.2,18.1,36.2z"/>
		<path class="st52" d="M-19.8-4.7C-14.2-9.2-8.9-9-3.1-4.5C1.3-1,6.4,1.4,11.1,4.3C9.2,6,6.7,6.5,4.4,6.9c-4,0.7-3,2.3-1.2,4.3
			c-3.4,4.2-5,4.8-9,2.3C-9.9,11-15,9.7-17.8,5.3C-19.2,2.1-19-1.4-19.8-4.7z"/>
		<path class="st52" d="M-69.8-0.6c0.1,1.8,0,4-2.2,5.3c-2.3,1.3-4.6,0.5-6.5-0.8c-5-3.6-7.7-8.6-8.2-14.7c-0.4-4.6,3.5-7,7.6-5
			C-73.9-13.3-69.8-6.8-69.8-0.6z"/>
		<path class="st53" d="M-17.8,5.3c3.3,1.8,6.9,3.3,9.8,5.6c3.9,3,7.4,3.7,11.3,0.3c2.3,0.1,4.5,0.2,7.4,0.3
			c-3.8,3.1-7.2,5.9-10.6,8.7c-5.4-0.6-8.9-4.6-13.4-6.9c-1.1-0.6-2.3-3.1-3.6-0.1C-18.8,10.8-17.4,7.9-17.8,5.3z"/>
		<path class="st54" d="M103,16.2c2.1-1.5,4.1-3.1,6.2-4.6c11.4-3.8,22.3-4.1,31.8,4.8c1,2.3,0.9,4.6,0,7c-0.5,3.5-3.1,5.4-5.9,6.8
			c-8.9,4.4-18,4-26.9-0.2c-2.6-1.2-5.3-3-5.2-6.6C102,20.9,102.2,18.5,103,16.2z"/>
		<path class="st8" d="M146.2-37.9c0-3.9,0-7.8,0-11.7c0.2,0,0.3,0,0.5,0c0,3.9,0,7.8,0,11.7C146.6-37.9,146.4-37.9,146.2-37.9z"/>
		<path class="st8" d="M145.4-33.5c0.7,1.9,0.7,3.8,0.1,6.3C144.7-29.7,145-31.6,145.4-33.5z"/>
		<path class="st8" d="M146.5-73.5c0.4,1.8,0.9,3.4-0.1,5C145.6-70.3,146-72,146.5-73.5z"/>
		<path class="st8" d="M145.2-79.7c0-1.5,0-3.1,0-4.9C146.7-83,145.4-81.3,145.2-79.7z"/>
		<path class="st8" d="M144.8-19.1c-1.2-1.5-0.7-2.5-0.7-4C145.5-21.7,144.7-20.6,144.8-19.1z"/>
		<path class="st8" d="M144.4-87.4c-0.6-1.1-0.6-2.1,0-3.4C145.1-89.6,145.2-88.5,144.4-87.4z"/>
		<path class="st55" d="M15.1-198.9c1.7,5.6,1.3,10.4,0.7,14.9c-0.4,2.7-3.1,0.5-4.6,0.3c-3.6-0.4-5.9-1.5-2.4-5.5
			C11.1-191.8,12.6-195,15.1-198.9z"/>
		<path class="st55" d="M16.6-174.8c2.8-1,5.3-1.9,7.7-2.7c0.7-0.3,1.5-1,2.2-0.2c0.9,0.9,0.2,1.8-0.2,2.7
			C24.5-170.9,21.1-170.7,16.6-174.8z"/>
		<path class="st56" d="M30.7-200.9c-0.4,2-1.3,3.4-3.5,3.4c-2.2-0.1-3.3-1.4-3.3-3.5c0-2.1,1.2-3.4,3.4-3.4
			C29.5-204.3,30.4-202.8,30.7-200.9z"/>
		<path class="st57" d="M7.4-202c-0.1,2.1-1.2,3.4-3.3,3.4c-1.9,0-3.1-1.2-3.3-3c-0.2-2.1,0.8-3.6,3-3.7C6-205.5,7.1-204.2,7.4-202z
			"/>
		<path class="st58" d="M-0.4-209.4c-0.9-3.1,0.2-4.8,2.9-5.4c1-0.2,2.6,0.3,2.5,1C4.3-211.1,1.7-210.6-0.4-209.4z"/>
		<path class="st59" d="M28.5-209.7c2.3-2,4.2-2.3,6-0.5c0.8,0.8,1.2,2.8,0.4,3C32.6-206.6,30.9-208.5,28.5-209.7z"/>
		<path class="st52" d="M320.8,191.1c-0.1,3.3-2.8,4.5-5.1,5.6c-14.5,7.1-29.2,7-43.7,0.3c-2.4-1.1-5.3-2.4-5.4-5.9
			c0.6-4.1,3.7-4.7,7-5.1c6.3,4.7,12.6,9.2,21.1,8c7-0.4,11.6-5.4,17-8.9C316.2,184.9,319,187.3,320.8,191.1z"/>
		<path class="st60" d="M320.8,191.1c-2.6-2.6-5.7-4.4-9-6c1.7-2,3.4-3.9,5.1-5.9C323.1,183.5,324.2,186.9,320.8,191.1z"/>
		<path class="st61" d="M294.7,105.2c2.2,6.8,2.8,13.9,3.3,21c0,2.7,0,5.5,0,8.4c-1.9-0.3-1.2-1.8-2-2.4c0.1-8.7-0.9-17.3-2.3-25.8
			C293.2,105.2,293.8,105.1,294.7,105.2z"/>
		<path class="st62" d="M295.9,160c0-0.3-0.1-0.6-0.2-0.9c1.8-9.3,7-16.8,13.1-23.7C303.4,143,300.8,152.1,295.9,160z"/>
		<path class="st63" d="M325.3,118.9c-1.4,1.1-2.8,2.2-4.4,3.5C321.5,120.2,323.2,119.3,325.3,118.9z"/>
		<path class="st64" d="M312.8,130.5c-0.5,1.7-1.3,3-3.5,3.8C309.9,132.1,311.2,131.1,312.8,130.5z"/>
		<path class="st11" d="M329.4,115.4c-0.5,1.2-1.1,2-2.1,2c-0.1,0-0.3-0.6-0.2-0.8C327.4,115.9,328,115.5,329.4,115.4z"/>
		<path class="st65" d="M273.6,185.9c-2.6,1.3-5,2.9-7,5.1c-3.2-3.6-2.3-7.5,2.2-10C270.4,182.7,272,184.3,273.6,185.9z"/>
		<path class="st62" d="M285.7,158.1c2.9,4.8,5,9.9,4.9,15.9c-2-4.9-3.9-9.8-5.9-14.7C284.2,158.2,284.8,158,285.7,158.1z"/>
		<path class="st63" d="M285.7,158.1c-0.4,0.4-0.7,0.8-1.1,1.2c-1.3-2.1-2.5-4.2-3.8-6.2c0.3-0.4,0.4-1,1-1.1
			C283.6,153.8,284.7,155.9,285.7,158.1z"/>
		<path class="st63" d="M292.8,182.1c1.4,2.6,1.3,5.3,0.5,9.2c-0.5-3.8-0.9-6.5-1.3-9.3C292.2,181.6,292.5,181.6,292.8,182.1z"/>
		<path class="st20" d="M266.1,136.7c-1.5-1.4-3-2.7-4.5-4.1c0.3-0.3,0.6-0.7,0.9-1c1.5,1.4,3,2.8,4.5,4.1
			C266.7,136,266.4,136.4,266.1,136.7z"/>
		<path class="st63" d="M278.8,150.1c-1.1-1.2-2.3-2.3-2.5-4.4c2.4,0.2,2.9,1.8,3.5,3.5C279.6,149.6,279.3,149.9,278.8,150.1z"/>
		<path class="st62" d="M292.8,182.1c-0.3,0-0.5,0-0.8-0.1c-0.2-1.8-0.5-3.7-0.8-6.5C293.4,178.1,292.7,180.1,292.8,182.1z"/>
		<path class="st20" d="M271,140.3c1.9-0.2,2.4,1.3,4.1,2.4C272.2,143.4,272.1,141.1,271,140.3z"/>
		<path class="st63" d="M278.8,150.1c0.3-0.3,0.6-0.6,0.9-1c0.7,1,1.4,1.9,2.1,2.9c-0.3,0.4-0.6,0.7-1,1.1
			C280.2,152.1,279.5,151.1,278.8,150.1z"/>
		<path class="st66" d="M294.7,105.2c-0.3,0.4-0.7,0.8-1,1.2c-0.5-1.9-1.1-3.8-2-7.1C294.4,101.6,294.4,103.5,294.7,105.2z"/>
		<path class="st67" d="M291.4,94.7c0.3,1,0.7,2,1.2,3.6C290.3,97.3,290.9,95.9,291.4,94.7z"/>
		<path class="st68" d="M103,23.3c0.7,1.3,1.2,2.7,2.5,3.7c9,6.7,28.7,7.2,35.5-3.7c1.8,2.6-0.8,3.8-1.9,5.3
			c-5.9,7.8-28.3,7.8-34.2,0C103.8,27.1,101.2,25.9,103,23.3z"/>
		<path class="st69" d="M-94.8,218.9c-2.3,0-4.6,0-6.8,0C-99.4,217.6-97.1,217.6-94.8,218.9z"/>
		<path class="st70" d="M-145.8,231.9c-1.9,0-3.9,0-5.8,0C-149.7,230.5-147.7,230.5-145.8,231.9z"/>
		<path class="st71" d="M-137.8,230.9c-1.6,0-3.2,0-4.8,0C-141,229.6-139.4,229.6-137.8,230.9z"/>
		<path class="st72" d="M-146.7-378.5c-0.4,2.9-1.8,5.3-4.9,5.9c-1.3,0.3-2.1-1-2-2.3c0.2-3,1.6-5.5,4.7-6.3
			C-147.4-381.7-146.8-380.2-146.7-378.5z"/>
		<path class="st73" d="M-164.1-364.8c-1.8-0.2-2.4-1.5-2.1-2.8c0.6-2.6,1.4-5.2,4.7-5.6c1.8-0.2,2.1,1.3,2,2.7
			C-159.8-367.6-161.5-365.8-164.1-364.8z"/>
		<path class="st74" d="M-172.3-362.5c-0.5,2.9-1.8,5.1-4.5,5.4c-2.1,0.2-2.1-1.8-1.8-3.2c0.5-2.5,1.5-4.9,4.5-5.1
			C-172-365.7-172.4-363.7-172.3-362.5z"/>
		<path class="st75" d="M44,147.1c0,1.7,0,3.4,0.1,5.1c-3.3,0-5,5.2-9,2.9c1.6-1,1-2.6,1.1-4c2.5-1,4.9-2.3,7-4
			C43.4,146.7,43.7,146.7,44,147.1z"/>
		<path class="st76" d="M62,142.2c-2.8-0.1-4.4,2.6-6.9,3c0.1-1.5-0.4-2.9-1.1-4.2c2.3-1.3,4.7-2.6,7-4
			C61.4,138.8,61.7,140.5,62,142.2z"/>
		<path class="st77" d="M46.2,150.4c-0.4-1.4-0.7-2.9-1.1-4.3c2.3-1.3,4.6-2.6,6.9-3.9c0.3,1.7,0.6,3.4,0.9,5.1
			C50.4,147.5,48.7,149.8,46.2,150.4z"/>
		<path class="st78" d="M88.1,126.3c-2,1.3-4,2.5-6.1,3.8c0.5-2.1-0.7-3.7-1.8-5.3c3.2,0.5,5-2.3,7.7-3
			C87.9,123.3,88,124.8,88.1,126.3z"/>
		<path class="st79" d="M71,137.4c-2.9-0.5-4.5,2.1-6.9,2.8c0.3-2.1-0.5-3.8-2-5.2c3.3,0.9,5.2-2.1,7.8-3.1
			C70.3,133.7,70.6,135.6,71,137.4z"/>
		<path class="st80" d="M79.1,131.5c-2,1.2-4,2.5-6,3.7c0.4-2.1-0.6-3.8-1.9-5.3c3.3,0.9,5-2.5,7.8-3C79,128.4,79,129.9,79.1,131.5z
			"/>
		<path class="st81" d="M44,147.1c-0.3,0-0.6,0-0.9,0c-0.5-0.9-1-1.6-2.1-1.8c-0.9-0.2-2,1.9-2.6-0.3c-0.1-0.4,0.2-0.9,0.5-1.3
			c0.9-1,2-1,3.1-0.6c1.4,0.5,2.4,1.5,3.1,2.9C44.8,146.4,44.4,146.8,44,147.1z"/>
		<path class="st77" d="M53.2,140.7c-0.4,0.5-0.8,0.9-1.2,1.4c-0.7-2.6-3.4-1.4-5.1-2.6C49.9,136.4,51.6,138.3,53.2,140.7z"/>
		<path class="st82" d="M61.2,134.1c-0.4,0.3-0.7,0.7-1.1,1c-1.3-2-2.4,1.9-3.6,0.2c-0.5-0.7-0.1-1.6,0.6-2.1
			C58.9,131.7,60,132.9,61.2,134.1z"/>
		<path class="st83" d="M87.4,118c-0.4,0.4-0.9,0.8-1.3,1.1c-0.9,0-1.6,1.4-2.6,0.6c-0.6-0.4-0.3-1.3,0.2-1.8
			C84.8,116.7,86.1,116.6,87.4,118z"/>
		<path class="st84" d="M137,19.3c0.7,4.7-2.9,6.2-6.2,7.5c-6.3,2.5-12.7,2.1-18.9-0.2c-4.9-1.8-6.4-5.9-3.8-9.3
			c4-3.4,8.5-5.4,13.9-5c2.4,0.2,5.1-0.5,5.8,3c0.2,1.1,1.5,1.4,2.4,1C133.6,14.7,135.3,16.9,137,19.3z"/>
		<path class="st85" d="M137,19.3c-2.1-1.8-4.1-3.6-7.2-1.2c-1.4,1-4.2-0.4-3.9-1.8c0.9-4.3-2.1-2.7-3.9-3c-5.3-0.8-9.5,2-14,4
			C115.4,8,132.4,9.1,137,19.3z"/>
	</g>
</g>
<g>
	<path class="st86" d="M398.6,211.7c-2.8,1.4-5.8,2.4-7.2,2.4c-1.7,0-3.5-0.7-4.1-1.8c-0.7-1.2-0.7-1.1-0.9-10.4
		c-0.1-6.1-0.1-8.8,0-9.4c0.2-1.6,0.8-3,2-5.1c1.2-2.1,2.4-3.6,3.6-4.6c0.4-0.4,3.4-2.1,8.8-5.2c8-4.6,8.1-4.7,9.1-5.6
		c1.8-1.6,3.7-4.5,4.5-6.8c0.9-2.5,1.1-4.1,1-8.9l-0.1-3.9l3.7-2.1l3.7-2.1l0.8,0c2.8,0,4.7,2.7,5.7,7.9c0.3,1.7,0.4,5.4,0.2,7.8
		c-0.4,4.7-1.6,8.9-3.4,12.2c-1.5,2.8-2.7,4.1-5.4,5.9c-1.7,1.2-7.8,4.7-16.1,9.4l-3.5,2l0,0.5l0,0.5l2.6-1.4
		c1.4-0.8,4.4-2.5,6.5-3.7c2.1-1.3,4.1-2.3,4.3-2.4l0.4-0.1l0,3.2c0.1,4.8-0.3,6.7-1.7,9.2C410.5,203.7,405.2,208.4,398.6,211.7
		L398.6,211.7z M403.8,207.6c4.1-2.7,8.2-7.3,9.4-10.7c0.6-1.7,0.7-2.6,0.7-5.9l0-3l-2,1.1c-1.1,0.6-4.1,2.3-6.6,3.8
		c-2.5,1.5-4.7,2.7-4.8,2.7c-0.3,0.1-0.3,0-0.3-1.4l0-1.5l3.4-1.9c1.9-1,6.7-3.9,10.8-6.2c7.8-4.6,7.9-4.7,9.1-6
		c1.9-2.2,3.5-5.7,4.3-9.6c0.6-2.9,0.8-4.6,0.7-8.1c0-3.6-0.2-4.9-1.1-7.4c-1-2.8-2.4-4.1-4.2-4.1l-0.8,0l-2.1,1.2
		c-1.2,0.6-2.5,1.4-3,1.8l-0.9,0.6l0,2.7c0,1.5,0,3.4-0.1,4.2c-0.3,3.7-1.3,6.8-3.4,9.7c-1,1.5-1.7,2.3-2.8,3.3
		c-0.8,0.7-1,0.9-9.4,5.8l-8.6,5l-0.7,0.7c-0.9,1-2.3,2.9-2.9,4.1c-0.7,1.3-1.2,2.9-1.3,4.1c-0.2,1.4,0.2,16.5,0.4,17.4
		c0.4,1.7,1.7,2.8,3.6,2.9c1.5,0.1,2.8-0.2,5.4-1.3c1.4-0.6,4.4-2.1,5.4-2.8C402.2,208.6,403.1,208,403.8,207.6L403.8,207.6z
		 M408,201.3c-1.1,0.3-1.9,0.2-2.3-0.6c-0.4-0.6-0.4-2.1-0.1-3c1.4-4.3,6-5.8,6-2c0,1.8-1.1,3.9-2.8,5.1
		C408.5,201,408.1,201.2,408,201.3L408,201.3z M378.1,206.2c-2.7,0.5-4.7-1.5-5.9-6.2c-0.5-1.9-0.7-4.4-0.5-7.3
		c0.2-4.2,0.6-6.8,1.7-10.1c0.6-1.7,0.8-2.3,1.7-3.7c1.1-1.9,2.1-3.2,3.5-4.4c0.5-0.4,3.3-2.1,11.1-6.7l10.5-6.1l0-0.9l0-0.9
		l-6.9,3.9l-6.9,3.9l-0.1-0.3c-0.1-0.4-0.2-5.3,0-6.8c0.2-2.3,0.6-3.7,1.5-5.4c0.7-1.2,2.1-2.9,3.6-4.2c2.1-1.8,3-2.4,8.5-5.5
		c5.5-3.2,6.9-3.9,8.5-4.2c2.2-0.5,4.4,0.5,5.1,2.3c0.4,1.2,0.5,2.5,0.6,10.4c0.1,8.3,0.1,8.7-0.6,10.6c-0.7,1.9-2.6,4.9-4.3,6.5
		c-0.7,0.7-0.9,0.8-8,5c-7.6,4.5-9.7,5.8-11,7c-1.9,1.8-3.7,4.6-4.5,7.1c-0.8,2.3-0.8,2.6-0.8,7.6l0,4.5l-2.3,1.4
		C379.3,205.7,378.8,206,378.1,206.2L378.1,206.2z M393.6,158.9c0.8-1.1,1.1-1.9,1.1-3c0-0.9-0.1-1.1-0.4-1.4
		c-0.8-0.8-2.2-0.4-3.4,1c-1.9,2.2-1.7,5.2,0.2,5.1C391.9,160.6,393,159.8,393.6,158.9L393.6,158.9z"/>
</g>
</svg>
